<svg width="30" height="30" viewBox="0 0 30 30" fill="none" xmlns="http://www.w3.org/2000/svg">
<path fill-rule="evenodd" clip-rule="evenodd" d="M15 30C23.2843 30 30 23.2843 30 15C30 6.71573 23.2843 0 15 0C6.71573 0 0 6.71573 0 15C0 23.2843 6.71573 30 15 30ZM20.914 7.56574C20.885 7.54199 20.8559 7.5183 20.827 7.49417C19.7424 6.60228 18.5193 5.98838 17.1463 5.64089C15.1155 5.13124 13.1309 5.30498 11.2155 6.08105C9.66931 6.70653 8.377 7.6795 7.35008 9.01155C5.94239 10.8648 5.2847 12.973 5.34239 15.278C5.377 16.9228 5.85008 18.4749 6.69239 19.8996C7.78854 21.7529 9.34623 23.0965 11.3424 23.8842C13.2809 24.6486 15.2655 24.7413 17.2963 24.3012C20.0309 23.6988 21.9809 22.1467 22.9963 19.4942C23.4232 18.3707 23.677 17.2008 23.7578 15.9961C23.7627 15.92 23.7681 15.8435 23.7736 15.7667C23.8077 15.2943 23.8423 14.8146 23.7232 14.3861C23.5964 14.2695 23.489 14.2596 23.3833 14.2499C23.3735 14.249 23.3637 14.248 23.354 14.2471C21.8193 14.027 20.2963 14.1081 18.7732 14.4324C18.6359 14.461 18.4988 14.4902 18.3617 14.5193C17.3352 14.7374 16.3112 14.9551 15.2424 14.9653C14.5501 14.9768 13.8693 14.8726 13.2001 14.7452C13.0386 15.2085 13.027 16.6911 13.154 17.3282C13.514 17.5362 13.9257 17.5683 14.3401 17.6005C14.3639 17.6024 14.3878 17.6042 14.4117 17.6062C15.7847 17.6988 17.1347 17.4672 18.4732 17.2124C18.6121 17.1872 18.7512 17.1594 18.8898 17.1316C19.3268 17.0443 19.7604 16.9575 20.1809 16.9575C20.2963 17.0849 20.3078 17.1776 20.2963 17.2703C20.1232 18.6602 19.5117 19.8185 18.3463 20.6062C16.927 21.5676 15.3347 21.7992 13.7078 21.4517C11.1924 20.9305 9.64624 19.2857 8.93085 16.8649C8.38854 15.0232 8.61931 13.2394 9.54239 11.5482C11.1232 8.61773 15.0001 7.29726 18.1155 9.37062C18.3727 9.54006 18.613 9.72635 18.8601 9.91775C18.9676 10.0011 19.0765 10.0855 19.1886 10.1698C19.4371 9.94677 19.6882 9.73234 19.9381 9.51888C20.4538 9.07843 20.9645 8.64215 21.4386 8.14282C21.2796 7.86354 21.095 7.71309 20.914 7.56574Z" fill="url(#paint0_linear_216_190)"/>
<defs>
<linearGradient id="paint0_linear_216_190" x1="0" y1="0" x2="34.8156" y2="22.5723" gradientUnits="userSpaceOnUse">
<stop stop-color="#9C6FFA"/>
<stop offset="1" stop-color="#4E9FDF"/>
</linearGradient>
</defs>
</svg>
